<svg version="1.0" xmlns="http://www.w3.org/2000/svg"
 width="512.000000pt" height="512.000000pt" viewBox="0 0 512.000000 512.000000"
 preserveAspectRatio="xMidYMid meet">

<g transform="translate(0.000000,512.000000) scale(0.100000,-0.100000)"
fill="#000000" stroke="none">
<path d="M2315 4084 c-122 -19 -233 -74 -308 -153 -108 -113 -147 -235 -147
-458 0 -154 -8 -186 -52 -217 -34 -24 -98 -20 -164 11 -79 37 -213 39 -286 6
-97 -44 -181 -160 -194 -269 -12 -106 -42 -137 -145 -153 -206 -34 -391 11
-613 148 -64 39 -118 71 -121 71 -9 0 -5 -174 5 -281 47 -461 247 -862 524
-1051 82 -56 196 -112 294 -142 46 -14 84 -26 86 -26 2 0 3 51 3 113 0 129 27
229 83 317 101 158 332 260 525 231 200 -29 367 -199 383 -386 5 -63 4 -65
-31 -100 -30 -30 -42 -35 -80 -35 -66 0 -101 33 -127 119 -37 125 -129 181
-267 161 -119 -16 -210 -79 -235 -162 -7 -24 -13 -92 -12 -153 0 -102 2 -117
37 -206 51 -133 82 -185 151 -255 186 -187 564 -221 849 -78 98 50 198 152
256 261 34 64 51 85 79 99 57 27 98 14 157 -49 87 -94 215 -161 390 -206 255
-65 490 -48 692 48 213 102 353 261 403 457 34 133 22 374 -18 359 -10 -3 -62
-13 -117 -22 -174 -26 -375 -4 -497 57 -175 87 -280 223 -328 424 -35 143 -24
256 36 383 107 226 360 351 604 299 94 -20 204 -73 267 -130 45 -41 48 -47 48
-95 0 -43 -4 -55 -31 -82 -20 -20 -44 -32 -70 -36 -34 -4 -49 2 -110 41 -191
124 -394 85 -481 -92 -25 -51 -28 -67 -27 -152 1 -118 25 -187 91 -260 88 -98
174 -130 354 -130 283 0 481 115 587 343 106 227 101 540 -11 762 -124 247
-371 448 -677 551 -81 28 -93 29 -260 28 -161 0 -182 -3 -265 -28 -49 -15
-123 -42 -163 -61 -69 -33 -207 -119 -218 -136 -2 -4 6 -45 18 -91 32 -117 31
-299 -1 -413 -64 -230 -210 -393 -419 -469 -259 -93 -547 83 -561 342 -5 108
19 149 96 166 39 9 95 -15 118 -50 9 -14 19 -48 22 -77 8 -70 23 -98 74 -133
89 -61 225 -28 328 81 86 90 121 191 121 343 0 122 -13 179 -67 291 -72 151
-197 260 -351 305 -57 16 -178 27 -227 20z"/>
</g>
</svg>
