<?xml version="1.0" standalone="no"?>
<!DOCTYPE svg PUBLIC "-//W3C//DTD SVG 20010904//EN"
 "http://www.w3.org/TR/2001/REC-SVG-20010904/DTD/svg10.dtd">
<svg version="1.0" xmlns="http://www.w3.org/2000/svg"
 width="1024.000000pt" height="1024.000000pt" viewBox="0 0 1024.000000 1024.000000"
 preserveAspectRatio="xMidYMid meet">

<g transform="translate(0.000000,1024.000000) scale(0.100000,-0.100000)"
fill="#000000" stroke="none">
<path d="M4865 9014 c-860 -60 -1652 -387 -2309 -951 -514 -442 -917 -1044
-1132 -1691 -62 -184 -105 -345 -129 -478 -9 -49 -20 -114 -26 -144 -42 -236
-59 -608 -40 -900 51 -793 344 -1543 849 -2175 331 -414 764 -769 1249 -1022
341 -179 665 -287 1108 -373 218 -42 545 -65 804 -56 836 29 1580 292 2246
795 250 189 515 450 709 698 268 343 484 744 622 1158 92 277 155 576 185 880
16 166 16 560 0 735 -63 679 -313 1350 -707 1898 -103 142 -210 277 -288 360
-34 37 -74 80 -87 95 -36 43 -252 237 -354 318 -489 389 -1057 657 -1651 778
-82 16 -183 35 -224 40 -41 6 -106 16 -145 21 -69 11 -582 21 -680 14z m-1855
-2003 c69 -22 172 -53 230 -71 99 -30 135 -41 335 -103 44 -14 181 -55 305
-92 778 -232 831 -249 914 -293 37 -21 97 -64 133 -98 l65 -61 67 66 c73 72
184 140 289 178 76 28 192 64 557 173 143 43 334 101 425 128 91 28 181 55
200 60 19 5 123 37 231 71 108 33 211 61 229 61 22 0 41 -9 61 -29 l29 -29 0
-737 0 -737 -30 7 c-17 4 -61 10 -98 13 l-67 7 -3 629 c-1 347 -4 632 -7 634
-5 5 -104 -23 -480 -138 -148 -45 -346 -105 -440 -132 -394 -116 -593 -181
-655 -215 -79 -44 -147 -111 -180 -178 -23 -45 -25 -64 -28 -196 l-4 -146 87
-7 c48 -4 126 -18 173 -32 472 -135 785 -585 742 -1066 -12 -140 -41 -243
-101 -365 -107 -214 -299 -397 -507 -482 -37 -15 -67 -33 -66 -39 1 -7 2 -32
3 -57 l1 -45 220 0 220 0 0 -100 0 -100 -315 0 -315 0 0 123 c0 68 -2 126 -4
128 -2 2 -34 3 -69 1 l-66 -4 -3 -236 c-3 -216 -5 -241 -24 -283 -31 -66 -79
-116 -148 -152 -54 -28 -70 -32 -146 -32 -79 0 -102 5 -330 79 -135 43 -294
93 -355 111 -101 31 -361 111 -805 251 -96 31 -191 60 -210 66 -112 34 -216
122 -266 225 l-29 58 -3 1575 c-2 1233 0 1580 10 1598 14 27 53 51 83 52 10 0
76 -18 145 -39z m4105 -1660 c291 -79 518 -295 585 -557 24 -94 26 -250 5
-343 -9 -35 -34 -102 -58 -150 -34 -68 -60 -104 -132 -177 -101 -102 -186
-157 -314 -204 -121 -44 -245 -63 -375 -57 l-110 5 -100 -48 c-56 -26 -149
-70 -208 -99 -129 -61 -165 -65 -202 -20 -31 36 -31 35 -7 174 10 61 22 139
26 175 6 59 5 67 -15 85 -12 11 -38 41 -57 68 l-36 49 20 36 c11 20 33 75 48
122 26 77 29 82 38 60 28 -71 43 -100 82 -155 24 -33 62 -77 84 -97 23 -21 41
-44 41 -52 0 -9 -7 -63 -16 -122 -8 -58 -14 -108 -11 -110 2 -2 68 27 146 64
141 69 142 69 194 59 89 -16 281 -2 364 27 272 94 433 291 433 529 0 214 -122
400 -330 500 -124 60 -208 80 -340 80 -132 0 -218 -20 -339 -79 -74 -36 -109
-61 -165 -117 -41 -41 -84 -96 -99 -126 -29 -59 -32 -56 -42 34 -3 33 -13 86
-21 119 l-15 59 33 34 c110 116 264 198 473 252 69 18 328 7 420 -18z m-524
-660 c60 -61 27 -156 -58 -168 -39 -5 -46 -2 -79 31 -33 33 -36 40 -31 79 12
85 107 118 168 58z m322 18 c47 -21 73 -103 44 -139 -45 -58 -113 -66 -159
-20 -28 28 -30 36 -25 78 8 76 71 112 140 81z m378 -18 c49 -50 38 -125 -23
-157 -70 -36 -148 11 -148 91 0 36 5 47 31 69 44 37 101 36 140 -3z"/>
<path d="M2960 5519 c0 -1156 2 -1291 15 -1285 9 3 44 11 79 17 81 15 107 9
526 -127 256 -83 756 -239 956 -299 192 -58 313 -100 328 -115 6 -6 14 -10 18
-10 4 0 8 528 8 1173 0 1327 6 1225 -82 1322 -26 28 -73 65 -105 82 -53 28
-311 111 -598 193 -60 17 -182 53 -270 80 -88 27 -243 74 -345 105 -102 31
-256 79 -343 106 -87 27 -165 49 -173 49 -12 0 -14 -176 -14 -1291z m669 396
c124 -41 377 -124 561 -185 184 -61 345 -115 357 -122 52 -26 54 -42 51 -512
l-3 -434 -24 -26 c-40 -43 -72 -42 -221 8 -74 24 -324 106 -555 181 -231 75
-435 142 -453 150 -17 8 -41 29 -52 47 -19 32 -20 51 -20 456 0 446 3 475 47
501 36 21 88 10 312 -64z"/>
<path d="M3480 5446 l0 -311 63 -19 c34 -10 237 -77 451 -147 214 -71 393
-129 398 -129 4 0 7 138 6 308 l-3 307 -175 58 c-96 32 -302 100 -457 151
l-283 94 0 -312z"/>
<path d="M5090 5385 l0 -236 38 7 c92 17 161 79 187 169 39 133 -46 268 -182
290 l-43 7 0 -237z"/>
<path d="M5551 5286 c-88 -32 -151 -122 -151 -217 1 -151 134 -254 286 -220
175 39 230 280 92 396 -64 54 -149 69 -227 41z"/>
<path d="M5090 4760 l0 -140 26 0 c38 0 91 28 114 60 31 43 27 120 -7 161 -28
33 -78 59 -113 59 -19 0 -20 -6 -20 -140z"/>
<path d="M5535 4661 c-166 -75 -180 -305 -25 -398 47 -29 63 -33 124 -33 80 0
133 26 178 89 83 116 41 284 -86 342 -53 24 -139 24 -191 0z"/>
<path d="M5097 4363 c-4 -3 -7 -110 -7 -236 l0 -230 41 7 c179 29 258 251 136
383 -23 25 -52 50 -66 57 -33 17 -95 28 -104 19z"/>
<path d="M3035 4045 c-93 -47 -98 -165 -11 -251 45 -44 83 -59 431 -164 94
-28 231 -71 305 -95 74 -24 164 -52 200 -63 36 -11 144 -45 240 -75 96 -30
236 -74 310 -97 74 -23 157 -49 183 -57 66 -21 132 -13 166 21 23 23 26 34 26
94 0 79 -19 113 -91 161 -50 33 -49 33 -529 181 -181 56 -397 124 -480 150
-82 27 -215 69 -295 94 -80 25 -194 61 -255 80 -121 40 -156 43 -200 21z"/>
</g>
</svg>
