<svg xmlns="http://www.w3.org/2000/svg" style="display: none;">
    <symbol id="icon-book" viewBox="0 0 24 24" stroke="currentColor">
        <path stroke-linecap="round" stroke-linejoin="round" stroke-width="2" d="M12 6.253v13m0-13C10.832 5.477 9.246 5 7.5 5S4.168 5.477 3 6.253v13C4.168 18.477 5.754 18 7.5 18s3.332.477 4.5 1.253m0-13C13.168 5.477 14.754 5 16.5 5c1.747 0 3.332.477 4.5 1.253v13C19.832 18.477 18.247 18 16.5 18c-1.746 0-3.332.477-4.5 1.253"></path>
    </symbol>
    
    <symbol id="icon-movie" viewBox="0 0 24 24" stroke="currentColor">
        <path stroke-linecap="round" stroke-linejoin="round" stroke-width="2" d="M7 4v16M17 4v16M3 8h4m10 0h4M3 12h18M3 16h4m10 0h4M4 20h16a1 1 0 001-1V5a1 1 0 00-1-1H4a1 1 0 00-1 1v14a1 1 0 001 1z"></path>
    </symbol>
    
    <symbol id="icon-game" viewBox="0 0 24 24" stroke="currentColor">
        <path stroke-linecap="round" stroke-linejoin="round" stroke-width="2" d="M14.752 11.168l-3.197-2.132A1 1 0 0010 10v4a1 1 0 001.555.832l3.197-2.132a1 1 0 000-1.664z"></path>
        <path stroke-linecap="round" stroke-linejoin="round" stroke-width="2" d="M21 12a9 9 0 11-18 0 9 9 0 0118 0z"></path>
    </symbol>

    <symbol id="icon-anime" viewBox="0 0 24 24" stroke="currentColor">
       <path stroke-linecap="round" stroke-linejoin="round" stroke-width="2" d="M2 12c3-5 7-7 10-7s7 2 10 7-3 7-10 7-7-2-10-7z" />
       <circle cx="12" cy="12" r="3" stroke-width="2" />
       <path stroke-linecap="round" d="M13.5 10.5l.5.5" stroke-width="2" />
    </symbol>

    <symbol id="icon-series" viewBox="0 0 24 24" stroke="currentColor">
        <path stroke-linecap="round" stroke-linejoin="round" stroke-width="2" d="M9.75 17L9 20l-1 1h8l-1-1-.75-3M3 13h18M5 17h14a2 2 0 002-2V5a2 2 0 00-2-2H5a2 2 0 00-2 2v10a2 2 0 002 2z"></path>
    </symbol>

    <symbol id="icon-music" viewBox="0 0 24 24" stroke="currentColor">
        <path stroke-linecap="round" stroke-linejoin="round" stroke-width="2" d="M9 19V6l12-3v13M9 19c0 1.105-1.343 2-3 2s-3-.895-3-2 1.343-2 3-2 3 .895 3 2zm12-3c0 1.105-1.343 2-3 2s-3-.895-3-2 1.343-2 3-2 3 .895 3 2zM9 10l12-3"></path>
    </symbol>
    
    <symbol id="icon-default" viewBox="0 0 24 24" stroke="currentColor">
        <circle cx="12" cy="12" r="10" stroke-width="2"></circle>
    </symbol>
    <symbol id="icon-trash" viewBox="0 0 24 24" stroke="currentColor">
        <path stroke-linecap="round" stroke-linejoin="round" stroke-width="2" d="M19 7l-.867 12.142A2 2 0 0116.138 21H7.862a2 2 0 01-1.995-1.858L5 7m5 4v6m4-6v6m1-10V4a1 1 0 00-1-1h-4a1 1 0 00-1 1v3M4 7h16"></path>
    </symbol>
    <symbol id="icon-edit" viewBox="0 0 24 24" stroke="currentColor">
        <path stroke-linecap="round" stroke-linejoin="round" stroke-width="2" d="M11 5H6a2 2 0 00-2 2v11a2 2 0 002 2h11a2 2 0 002-2v-5m-1.414-9.414a2 2 0 112.828 2.828L11.828 15H9v-2.828l8.586-8.586z"></path>
    </symbol>
    <symbol id="icon-github" viewBox="0 0 98 96" fill="currentColor">
        <path fill-rule="evenodd" clip-rule="evenodd" d="M48.854 0C21.839 0 0 22 0 49.217c0 21.756 13.993 40.172 33.405 46.69 2.427.49 3.316-1.059 3.316-2.362 0-1.141-.08-5.052-.08-9.127-13.59 2.934-16.42-5.867-16.42-5.867-2.184-5.704-5.42-7.17-5.42-7.17-4.448-3.015.324-3.015.324-3.015 4.934.326 7.523 5.052 7.523 5.052 4.367 7.496 11.404 5.378 14.235 4.074.404-3.178 1.699-5.378 3.074-6.6-10.839-1.141-22.243-5.378-22.243-24.283 0-5.378 1.94-9.778 5.014-13.2-.485-1.222-2.184-6.275.486-13.038 0 0 4.125-1.304 13.426 5.052a46.97 46.97 0 0 1 12.214-1.63c4.125 0 8.33.571 12.213 1.63 9.302-6.356 13.427-5.052 13.427-5.052 2.67 6.763.97 11.816.485 13.038 3.155 3.422 5.015 7.822 5.015 13.2 0 18.905-11.404 23.06-22.324 24.283 1.78 1.548 3.316 4.481 3.316 9.126 0 6.6-.08 11.897-.08 13.526 0 1.304.89 2.853 3.316 2.364 19.412-6.52 33.405-24.935 33.405-46.691C97.707 22 75.788 0 48.854 0z"/>
    </symbol>
<symbol id="icon-logo" viewBox="0 0 24 24"  fill="currentColor">
        <path d="M512 64C264.6 64 64 264.6 64 512s200.6 448 448 448 448-200.6 448-448S759.4 64 48.854 0zm0 820c-205.4 0-372-166.6-372-372s166.6-372 372-372 372 166.6 372 372-166.6 372-372 372zm5.6-532.7c53 0 89 33.8 93 83.4.3 4.2 3.8 7.4 8 7.4h56.7c2.6 0 4.7-2.1 4.7-4.7 0-86.7-68.4-147.4-162.7-147.4C407.4 290 344 364.2 344 486.8v52.3C344 660.8 407.4 734 517.3 734c94 0 162.7-58.8 162.7-141.4 0-2.6-2.1-4.7-4.7-4.7h-56.8c-4.2 0-7.6 3.2-8 7.3-4.2 46.1-40.1 77.8-93 77.8-65.3 0-102.1-47.9-102.1-133.6v-52.6c.1-87 37-135.5 102.2-135.5z"/>
    </symbol>
    <symbol id="icon-export" viewBox="0 0 24 24" stroke="currentColor" fill="none">
        <path stroke-linecap="round" stroke-linejoin="round" stroke-width="2" d="M4 16v1a3 3 0 003 3h10a3 3 0 003-3v-1m-4-4l-4 4m0 0l-4-4m4 4V4"></path>
    </symbol>
    <symbol id="icon-import" viewBox="0 0 24 24" stroke="currentColor" fill="none">
        <path stroke-linecap="round" stroke-linejoin="round" stroke-width="2" d="M4 16v1a3 3 0 003 3h10a3 3 0 003-3v-1m-4-8l-4-4m0 0L8 8m4-4v12"></path>
    </symbol>
    <symbol id="icon-file-csv" viewBox="0 0 24 24" stroke="currentColor" fill="none">
        <path stroke-linecap="round" stroke-linejoin="round" stroke-width="2" d="M9 12h6m-6 4h6m2 5H7a2 2 0 01-2-2V5a2 2 0 012-2h5.586a1 1 0 01.707.293l5.414 5.414a1 1 0 01.293.707V19a2 2 0 01-2 2z"></path>
    </symbol>
    <symbol id="icon-file-json" viewBox="0 0 24 24" stroke="currentColor" fill="none">
        <path stroke-linecap="round" stroke-linejoin="round" stroke-width="2" d="M10 20l4-16m4 4l4 4-4 4M6 16l-4-4 4-4"></path>
    </symbol>
    <symbol id="icon-file-xlsx" viewBox="0 0 24 24" stroke="currentColor" fill="none">
        <path stroke-linecap="round" stroke-linejoin="round" stroke-width="2" d="M3 10h18M3 14h18m-9-4v8m-7 0h14a2 2 0 002-2V8a2 2 0 00-2-2H5a2 2 0 00-2 2v8a2 2 0 002 2z"></path>
    </symbol>
</svg>
